<?xml version="1.0" encoding="UTF-8"?><svg id="Layer_2" xmlns="http://www.w3.org/2000/svg" viewBox="0 0 206.31 126.28"><defs><style>.cls-1{fill:#2e1a4a;}.cls-2{fill:#af905f;}</style></defs><g id="Layer_1-2"><path class="cls-1" d="M109.89,48.97s-.01-.04-.02-.06c-1.02-3.08-1.06-6.88,1.85-10.99,2.31-3.26,4.75-6.09,4.24-11.23,0-.05-.04-.57.49-.79.59-.24.96.26.98.29,2.63,4.4,3.23,9.15,1.85,12.88-1.83,4.95-5.87,6.32-7.94,10.11-.13.24-.43.41-.73.38-.32-.02-.62-.26-.73-.59Z"/><path class="cls-1" d="M95.86,51.47c-8.59-3.26-15.73-14.55-6.63-26.68,7.93-10.55,13.57-16.62,11.68-23.81-.04-.14-.09-.66.37-.89.71-.36,1.11.33,1.14.38,4.62,7.64.43,16.71-6.34,27.13-3.82,5.88-5.92,15.14.66,22.54.34.39.32.79.12,1.08-.18.26-.51.43-.99.25Z"/><path class="cls-1" d="M70.94,57.64c1.17-.22,5.37-1.05,14.12-3.35,5.49-1.44,11.7-.44,14.25,2.18,2.28,2.34,3.1,5.21,3.26,5.65.26.68.54,2.23.54,2.23,0,0,.92-2.46,1.23-2.91.21-.3,1.36-.34,2.23-2.65.64-1.72.03-4.13-3.09-6.31-6.72-4.71-7.53-16.09-1.71-24.66,5.43-7.98,7.35-13.16,6.6-17.35-.01-.07-.08-.63.41-.87.52-.26.95.15.98.19,6.92,9.18,1.38,18.28-1.95,23.15-3.23,4.72-4.31,8.73-3.3,13.32.21.99.38,2.49,1.26,4.07.82,1.27,2.14,4.75,4.26,3.97,3.36-1.24,6.64-.46,12.26.74,7.92,1.69,11.71,2.41,12.76,2.61.33.06.51.32.57.41.04.05,5.74,7.82,5.74,7.82,0,0,.3.37.09.81-.13.22-.37.53-.9.43-4.76-.91-16.69-3.18-21.56-3.88-6.39-.92-12.41-.07-15.18,3.18-.13.15-.31.38-.68.38s-.56-.2-.69-.36c-2.73-3.22-8.62-4.11-14.76-3.24-4.81.69-17,2.99-21.85,3.91-.57.15-.95-.18-1.05-.55-.1-.37.16-.71.16-.71l5.49-7.93s.13-.2.5-.28Z"/><path class="cls-2" d="M12.19,95.14c0,3.28-1.97,5.8-6.16,5.8-3.94,0-6.03-2.33-6.03-5.85v-10.19h1.99v10.26c0,2.57,1.37,4.05,4.14,4.05s4.08-1.68,4.08-4.08v-10.24h1.97v10.24Z"/><path class="cls-2" d="M28.58,100.72l-8.46-13.14h-.09c.07,1.04.18,2.68.18,4.3v8.84h-1.84v-15.82h2.3l8.44,13.09h.09c-.04-.71-.15-2.73-.15-4.16v-8.93h1.86v15.82h-2.33Z"/><path class="cls-2" d="M35.97,100.72l.66-1.77h1.2v-12.3h-1.86v-1.75h5.72l-.66,1.75h-1.2v12.3h1.86v1.77h-5.72Z"/><path class="cls-2" d="M53.23,100.72h-1.99l-5.65-15.82h2.08l3.57,10.15c.47,1.31.78,2.41,1,3.46.2-1.04.53-2.17,1-3.5l3.54-10.1h2.1l-5.65,15.82Z"/><path class="cls-2" d="M63.41,100.72v-15.82h8.84v1.75h-6.85v4.94h5.94v1.73h-5.94v5.65h7.33l-.66,1.75h-8.66Z"/><path class="cls-2" d="M87.79,89.4c0,2.53-1.57,3.68-3.17,4.23l4.34,7.09h-2.33l-3.83-6.54h-3.15v6.54h-1.99v-15.82h4.36c3.92,0,5.76,1.48,5.76,4.5ZM79.66,86.63v5.87h2.37c2.57,0,3.7-1.02,3.7-3.01s-1.22-2.86-3.81-2.86h-2.26Z"/><path class="cls-2" d="M97.43,100.94c-1.77,0-3.35-.27-4.34-.75l.62-1.64c.69.31,2.13.66,3.81.66,2.35,0,3.57-.97,3.57-2.55s-.86-2.22-3.72-3.26c-2.7-.98-4.08-2.24-4.08-4.7s2.06-4.03,5.05-4.03c1.73,0,3.17.35,4.36.89l-.64,1.71c-1.11-.47-2.39-.84-3.77-.84-1.97,0-2.99.93-2.99,2.3,0,1.6.89,2.24,3.46,3.19,2.79,1.04,4.32,2.08,4.32,4.56,0,2.81-2.19,4.45-5.65,4.45Z"/><path class="cls-2" d="M107.3,100.72l.66-1.77h1.2v-12.3h-1.86v-1.75h5.72l-.66,1.75h-1.2v12.3h1.86v1.77h-5.72Z"/><path class="cls-2" d="M122.48,100.72h-4.41v-15.82h4.87c4.76,0,7.8,2.68,7.8,7.75,0,5.34-3.06,8.06-8.26,8.06ZM122.66,86.61h-2.59v12.41h2.15c4.28,0,6.42-2.13,6.42-6.29s-2.17-6.11-5.98-6.11Z"/><path class="cls-2" d="M143.96,95.83h-6.27l-1.88,4.9h-2.02l6.18-15.88h1.79l6.16,15.88h-2.06l-1.91-4.9ZM141.59,89.27c-.13-.35-.6-1.82-.75-2.37-.22.91-.51,1.86-.69,2.37l-1.79,4.79h5.01l-1.77-4.79Z"/><path class="cls-2" d="M156.87,100.72h-4.41v-15.82h4.87c4.76,0,7.8,2.68,7.8,7.75,0,5.34-3.06,8.06-8.26,8.06ZM157.05,86.61h-2.59v12.41h2.15c4.28,0,6.43-2.13,6.43-6.29s-2.17-6.11-5.98-6.11Z"/><path class="cls-2" d="M183.23,100.72h-4.41v-15.82h4.87c4.76,0,7.8,2.68,7.8,7.75,0,5.34-3.06,8.06-8.26,8.06ZM183.4,86.61h-2.59v12.41h2.15c4.28,0,6.42-2.13,6.42-6.29s-2.17-6.11-5.98-6.11Z"/><path class="cls-2" d="M196.98,100.72v-15.82h8.84v1.75h-6.85v4.94h5.94v1.73h-5.94v5.65h7.33l-.66,1.75h-8.66Z"/><path class="cls-2" d="M1.8,111.98h-.09c.1,1.08.16,2.53.16,4.34v9.74H0v-16.06h2.99l4.95,13.16h.09l5.04-13.16h2.97v16.06h-2v-9.88c0-1.29.05-2.68.16-4.18h-.09l-5.35,14.06h-1.66l-5.29-14.08Z"/><path class="cls-2" d="M35.69,122.37c-.57,1.25-1.41,2.21-2.51,2.89-1.1.68-2.45,1.02-4.04,1.02-2.44,0-4.29-.74-5.54-2.23-1.25-1.48-1.88-3.51-1.88-6.07s.63-4.56,1.89-6.03c1.26-1.47,3.11-2.2,5.56-2.2,1.57,0,2.92.34,4.03,1.01,1.11.67,1.95,1.63,2.51,2.87.56,1.24.84,2.7.84,4.38s-.29,3.12-.86,4.36ZM25.17,122.83c.88,1.13,2.2,1.7,3.97,1.7s3.09-.57,3.96-1.7c.87-1.13,1.3-2.74,1.3-4.82s-.43-3.69-1.29-4.8c-.86-1.12-2.18-1.68-3.95-1.68s-3.12.56-3.99,1.69c-.88,1.13-1.32,2.72-1.32,4.79s.44,3.69,1.32,4.82Z"/><path class="cls-2" d="M52.59,126.06l-8.59-13.34h-.09c.12,1.88.18,3.33.18,4.36v8.98h-1.87v-16.06h2.34l8.57,13.3h.09c-.11-1.68-.16-3.09-.16-4.23v-9.07h1.89v16.06h-2.36Z"/><path class="cls-2" d="M64.7,126.06v-14.28h-5.02l.67-1.78h11.36v1.78h-4.99v14.28h-2.02Z"/><path class="cls-2" d="M76.45,126.06v-16.06h8.98v1.78h-6.95v5.02h6.03v1.75h-6.03v5.74h7.45l-.67,1.78h-8.8Z"/><path class="cls-2" d="M92.76,111.98h-.09c.1,1.08.16,2.53.16,4.34v9.74h-1.87v-16.06h2.99l4.95,13.16h.09l5.04-13.16h2.97v16.06h-2v-9.88c0-1.29.05-2.68.16-4.18h-.09l-5.35,14.06h-1.66l-5.29-14.08Z"/><path class="cls-2" d="M126.65,122.37c-.57,1.25-1.41,2.21-2.51,2.89-1.1.68-2.45,1.02-4.04,1.02-2.44,0-4.29-.74-5.54-2.23-1.25-1.48-1.88-3.51-1.88-6.07s.63-4.56,1.89-6.03c1.26-1.47,3.11-2.2,5.56-2.2,1.57,0,2.92.34,4.03,1.01,1.11.67,1.95,1.63,2.51,2.87.56,1.24.84,2.7.84,4.38s-.29,3.12-.86,4.36ZM116.13,122.83c.88,1.13,2.2,1.7,3.97,1.7s3.09-.57,3.96-1.7c.87-1.13,1.3-2.74,1.3-4.82s-.43-3.69-1.29-4.8c-.86-1.12-2.18-1.68-3.95-1.68s-3.12.56-3.99,1.69c-.88,1.13-1.32,2.72-1.32,4.79s.44,3.69,1.32,4.82Z"/><path class="cls-2" d="M142.01,111.13c.96.76,1.44,1.9,1.44,3.43,0,2.12-1.07,3.55-3.22,4.3l4.41,7.2h-2.36l-3.89-6.64h-3.19v6.64h-2.02v-16.06h4.43c1.98,0,3.45.38,4.41,1.14ZM135.2,111.75v5.96h2.41c1.29,0,2.24-.25,2.85-.76.61-.51.91-1.27.91-2.29s-.31-1.78-.93-2.23c-.62-.45-1.6-.67-2.94-.67h-2.29Z"/><path class="cls-2" d="M149.44,126.06v-16.06h8.98v1.78h-6.95v5.02h6.03v1.75h-6.03v5.74h7.45l-.67,1.78h-8.8Z"/><path class="cls-2" d="M163.94,110h2.02v14.26h7.4l-.67,1.8h-8.75v-16.06Z"/><path class="cls-2" d="M190.8,122.37c-.57,1.25-1.41,2.21-2.51,2.89-1.1.68-2.45,1.02-4.04,1.02-2.44,0-4.29-.74-5.54-2.23-1.25-1.48-1.88-3.51-1.88-6.07s.63-4.56,1.89-6.03c1.26-1.47,3.11-2.2,5.56-2.2,1.57,0,2.92.34,4.03,1.01,1.11.67,1.95,1.63,2.51,2.87.56,1.24.84,2.7.84,4.38s-.29,3.12-.86,4.36ZM180.29,122.83c.88,1.13,2.2,1.7,3.97,1.7s3.09-.57,3.96-1.7c.87-1.13,1.3-2.74,1.3-4.82s-.43-3.69-1.29-4.8c-.86-1.12-2.18-1.68-3.95-1.68s-3.12.56-3.99,1.69c-.88,1.13-1.32,2.72-1.32,4.79s.44,3.69,1.32,4.82Z"/><path class="cls-2" d="M204.77,125.09c-1.03.8-2.43,1.19-4.2,1.19-.9,0-1.73-.07-2.5-.2-.77-.14-1.4-.32-1.91-.56l.63-1.66c.4.18.95.34,1.64.47.69.14,1.43.2,2.23.2,1.17,0,2.07-.23,2.69-.69.62-.46.93-1.09.93-1.9,0-.53-.11-.97-.34-1.33-.23-.36-.6-.69-1.14-.99-.53-.3-1.3-.63-2.31-.99-1.42-.51-2.47-1.13-3.14-1.86-.67-.73-1-1.7-1-2.91s.47-2.26,1.42-2.99c.94-.73,2.18-1.1,3.71-1.1,1.61,0,3.08.3,4.43.9l-.65,1.73c-1.35-.57-2.62-.86-3.82-.86-.97,0-1.72.21-2.25.63-.53.42-.79.99-.79,1.71,0,.54.11.99.33,1.35.22.36.57.68,1.07.96.5.28,1.2.59,2.12.93,1.02.38,1.84.76,2.46,1.15.62.39,1.1.87,1.43,1.43.33.56.5,1.25.5,2.06,0,1.42-.51,2.53-1.54,3.33Z"/></g></svg>