<?xml version="1.0" encoding="utf-8"?>
<!-- Generator: Adobe Illustrator 29.5.0, SVG Export Plug-In . SVG Version: 9.03 Build 0)  -->
<svg version="1.0" id="Layer_1" xmlns="http://www.w3.org/2000/svg" xmlns:xlink="http://www.w3.org/1999/xlink" x="0px" y="0px"
	 viewBox="0 0 300 84" style="enable-background:new 0 0 300 84;" xml:space="preserve">
<style type="text/css">
	.st0{fill:#E92328;}
</style>
<g>
	<path class="st0" d="M70.4,38.2c-0.1-1.4-0.4-2.7-1.2-3.9L63,23.5c-0.5-0.8-0.8-1.7-1-2.6l-0.3,0.4c-1.5,2.6-1.5,6,0,8.6l5,8.6
		c1.6,2.6,1.6,6,0,8.6l-0.3,0.4c-0.2-0.9-0.6-1.8-1-2.6l-4.5-7.9L58,32c-0.5-0.8-0.8-1.7-1-2.6l-0.3,0.4c-1.5,2.6-1.5,5.9,0,8.6l0,0
		l5,8.6c1.5,2.6,1.5,6,0,8.6l-0.3,0.4c-0.2-0.9-0.5-1.8-1-2.6l-6.3-10.8C53.4,41.3,53,39.7,53,38c-6.6,1.7-11.3,5.4-11.3,9.7
		c0,6,8.9,10.8,19.9,10.8s19.9-4.8,19.9-10.8C81.6,43.7,77.1,40,70.4,38.2z M89.2,56.7c0.1-1.6,0.3-2.6,0.7-3.8
		c2.1,1,4.8,1.4,6.8,1.4c3.4,0,5.4-1.1,5.4-3.4c0-2.2-1.4-3.2-4.9-4.7l-1.9-0.7c-3.6-1.6-5.9-3.6-5.9-7.4c0-4.3,3-7,9-7
		c2.4,0,4.7,0.4,6.8,1.1c-0.1,1.4-0.4,2.6-0.7,3.7c-2-0.7-4.4-1.1-6.2-1.1c-3.3,0-4.7,1.3-4.7,3.3c0,1.9,1.4,3.1,4.1,4.2l2,0.8
		c4.7,2,6.7,4.2,6.7,7.8c0,4.3-3.3,7.3-9.6,7.3C93.8,58.1,91.3,57.7,89.2,56.7z M126.6,38.8v18.7h-3.8l-0.2-2.3
		c-1.1,1.6-2.6,2.7-5.3,2.7c-4.9,0-8.3-3.6-8.3-9.9c0-6.6,3.6-10.4,10.4-10.4C122.2,37.8,124.4,38,126.6,38.8z M122.4,53.2V41.5
		c-0.8-0.2-1.8-0.2-3-0.2c-4.3,0-6.3,2.6-6.3,6.8c0,3.8,1.6,6.6,5.2,6.6C120.1,54.6,121.4,54,122.4,53.2z M147.6,45v12.6h-4.1V45.7
		c0-3-1-4.4-5.1-4.4c-1,0-2.1,0.1-3.3,0.3v15.9h-4.1V38.8c2.6-0.6,5.6-1.1,7.4-1.1C145.4,37.8,147.6,40.4,147.6,45z M159.1,54.5
		c1.2,0,2.4-0.2,3.2-0.6c-0.1,1.1-0.3,2.4-0.4,3.4c-1.1,0.4-2.4,0.6-3.4,0.6c-4,0-6.6-1.8-6.6-6.4V31.9c1.3-0.4,2.8-0.6,4.1-0.6v7.1
		h6.6c-0.1,1.3-0.2,2.4-0.4,3.6h-6.2v9.2C155.9,53.5,157.1,54.5,159.1,54.5z M181.2,38.8v18.7h-3.8l-0.2-2.3
		c-1.1,1.6-2.6,2.7-5.3,2.7c-4.9,0-8.3-3.6-8.3-9.9c0-6.6,3.6-10.4,10.4-10.4C176.8,37.8,179,38,181.2,38.8z M177,53.2V41.5
		c-0.8-0.2-1.8-0.2-3-0.2c-4.3,0-6.3,2.6-6.3,6.8c0,3.8,1.6,6.6,5.2,6.6C174.6,54.6,176,54,177,53.2z M202.3,45v12.6h-4.2V45.7
		c0-3-1-4.4-5.1-4.4c-1,0-2.1,0.1-3.3,0.3v15.9h-4.1V38.8c2.6-0.6,5.6-1.1,7.4-1.1C200,37.8,202.3,40.4,202.3,45z M223.1,31.3v26.2
		h-3.8l-0.2-2.4c-1.1,1.7-2.6,2.8-5.4,2.8c-4.9,0-8.3-3.6-8.3-9.9c0-6.6,3.6-10.4,10.4-10.4c1.1,0,2.1,0.1,3.1,0.3v-6.2
		C220.3,31.4,221.7,31.3,223.1,31.3z M219,53.2V41.7c-1.1-0.2-2.2-0.4-3.3-0.4c-4.1,0-6,2.6-6,6.8c0,3.8,1.6,6.6,5.2,6.6
		C216.5,54.6,217.9,54,219,53.2z M243.8,49.5h-13.2c0.6,3.4,2.4,4.9,6.2,4.9c2.3,0,4.6-0.4,6.6-1.4c-0.2,1.1-0.4,2.6-0.6,3.7
		c-1.9,0.8-3.8,1.2-6.1,1.2c-6.9,0-10.2-3.8-10.2-10.2c0-5.6,2.6-10,9.1-10c5.9,0,8.4,3.8,8.4,8.6C244,47.5,244,48.4,243.8,49.5z
		 M230.6,46h9.3c0-3.1-1.6-4.9-4.4-4.9C232.4,41.2,230.9,42.9,230.6,46z M258.3,38c0,1.3-0.2,2.7-0.4,3.6c-1-0.1-1.9-0.2-3.1-0.2
		c-1,0-2,0.1-3,0.2v16h-4.1V38.8c1.7-0.6,4.7-1.1,7-1.1C255.9,37.8,257.4,37.8,258.3,38z"/>
</g>
</svg>
