<?xml version="1.0" encoding="UTF-8"?>
<svg id="Capa_2" data-name="Capa 2" xmlns="http://www.w3.org/2000/svg" viewBox="0 0 351.19 148.87">
  <defs>
    <style>
      .cls-1 {
        fill: none;
        stroke: #6a971f;
        stroke-miterlimit: 10;
        stroke-width: 1.5px;
      }

      .cls-2 {
        fill: #6a971f;
      }

      .cls-3 {
        fill: #fdc600;
      }

      .cls-4 {
        fill: #542d00;
      }
    </style>
  </defs>
  <g id="Layer_1" data-name="Layer 1">
    <g>
      <path class="cls-1" d="M175.55.75C110.52.87,50.26,7.97.75,19.98v109.5c49.55,11.83,110.04,18.75,175.07,18.64,65.03-.12,125.12-7.18,174.62-19.19V19.35C300.88,7.52,240.59.64,175.55.75Z"/>
      <g>
        <g>
          <g>
            <path class="cls-4" d="M164.84,68.12c6.53,0,11.82,1.97,15.86,5.91,4.04,3.94,6.06,8.53,6.06,13.76s-2.05,9.91-6.15,13.8c-4.1,3.9-9.36,5.85-15.78,5.85s-11.78-1.94-15.86-5.82c-4.08-3.88-6.12-8.49-6.12-13.83s2.03-9.84,6.08-13.78c4.05-3.93,9.35-5.9,15.9-5.9ZM164.84,99.49c3.62,0,6.54-1.08,8.76-3.22,2.21-2.15,3.32-4.97,3.32-8.47s-1.11-6.34-3.32-8.48c-2.21-2.14-5.13-3.21-8.76-3.21s-6.57,1.07-8.8,3.21c-2.22,2.14-3.34,4.97-3.34,8.48s1.11,6.32,3.34,8.47c2.22,2.15,5.16,3.22,8.8,3.22Z"/>
            <path class="cls-4" d="M250.44,71.99c-2.29-2.25-5.37-3.38-9.25-3.38h-17.1v38.34h9.55v-14.97s.08,0,.13.01c.14.01,4.53.35,8.66-.3,4.07-.64,6.98-2.48,8.04-3.54,2.26-2.27,3.39-5,3.39-8.18s-1.14-5.74-3.43-7.99ZM238.09,84.53s.9.04-4.45,0v-8.89h3.37c2.56,0,4.37.33,5.44.97,1.06.65,1.59,1.81,1.59,3.47,0,2.96-1.99,4.45-5.96,4.45Z"/>
            <path class="cls-4" d="M274.37,68.62h-11.07l-15.49,38.34h10.12l3.29-8.7c1.32.34,2.81.62,4.48.76,5.46.78,11.84-.77,11.84-.77l3.59,8.71h10.27l-17.03-38.34ZM263.81,91.43l5.16-13.64,6.04,14.49s-5.79,1.22-11.2-.85Z"/>
            <path class="cls-4" d="M137.64,97.34c-1.49.63-2.72,1.09-3.7,1.37-1.83.52-3.73.78-5.71.78-3.99,0-7.26-1.11-9.81-3.32-2.55-2.21-3.83-5.02-3.83-8.42s1.29-6.17,3.88-8.36c2.59-2.19,5.92-3.28,10-3.28,1.92,0,3.9.29,5.93.85l7.2-5.49c-3.78-2.22-8.38-3.34-13.82-3.34-6.86,0-12.42,1.92-16.67,5.76-4.25,3.84-6.38,8.52-6.38,14.02s2.02,10.14,6.05,13.9c4.04,3.76,9.45,5.64,16.26,5.64,5.25,0,10.27-1.27,15.07-3.81v-.42l-4.48-5.88Z"/>
            <polygon class="cls-4" points="217.22 99.93 200.42 99.93 200.42 68.62 190.87 68.62 190.87 106.96 219.67 106.96 217.22 99.93"/>
            <path class="cls-4" d="M323.45,97.54c-1.27.53-2.35.92-3.22,1.17-1.83.52-3.73.78-5.71.78-3.99,0-7.26-1.11-9.81-3.32-2.55-2.21-3.83-5.02-3.83-8.42s1.29-6.17,3.88-8.36,5.92-3.28,10-3.28c1.67,0,3.37.21,5.12.64l7.39-5.64c-3.66-1.99-8.05-2.98-13.2-2.98-6.86,0-12.42,1.92-16.67,5.76-4.25,3.84-6.38,8.52-6.38,14.02s2.02,10.14,6.05,13.9c4.04,3.76,9.46,5.64,16.26,5.64,5.17,0,10.12-1.23,14.84-3.7l-4.74-6.21Z"/>
          </g>
          <g>
            <path class="cls-4" d="M123.1,43.28h-4.93l-6.9,17.07h4.51l1.46-3.87c.59.15,1.25.27,1.99.34,2.43.35,5.27-.34,5.27-.34l1.6,3.88h4.57l-7.58-17.07ZM118.4,53.44l2.3-6.08,2.69,6.45s-2.58.54-4.99-.38Z"/>
            <polygon class="cls-4" points="151.57 57.22 144.09 57.22 144.09 43.28 139.83 43.28 139.83 60.35 152.66 60.35 151.57 57.22"/>
            <path class="cls-4" d="M166.52,43.24v17.05h-4.25v-17.05h4.25Z"/>
            <path class="cls-4" d="M186.63,49.57l5.48-6.32h3.69v17.05h-4.25v-10.65l-4.61,5.35h-.64l-4.61-5.35v10.65h-4.25v-17.05h3.69l5.48,6.32Z"/>
            <path class="cls-4" d="M218.23,57.17l.97,3.13h-12.57v-17.05h12.4l-1.18,3.12h-6.97v3.58h6.87v3.13h-6.87v4.1h7.36Z"/>
            <path class="cls-4" d="M246.72,43.24v17.05h-3.59l-9.41-10.93v10.93h-4.25v-17.05h3.89l9.11,10.43v-10.43h4.25Z"/>
            <path class="cls-4" d="M272.94,43.24l-1.09,3.12h-5.09v13.93h-4.25v-13.93h-5.08l-1.09-3.12h16.6Z"/>
            <path class="cls-4" d="M289.95,43.02c2.9,0,5.26.88,7.05,2.63s2.7,3.79,2.7,6.12-.91,4.41-2.73,6.14c-1.82,1.73-4.16,2.6-7.02,2.6s-5.24-.86-7.06-2.59c-1.81-1.73-2.72-3.78-2.72-6.15s.9-4.38,2.7-6.13c1.8-1.75,4.16-2.62,7.07-2.62ZM289.95,56.98c1.61,0,2.91-.48,3.89-1.43.99-.96,1.48-2.21,1.48-3.77s-.49-2.82-1.48-3.77c-.98-.95-2.28-1.43-3.89-1.43s-2.92.47-3.91,1.43c-.99.95-1.48,2.21-1.48,3.77s.49,2.81,1.48,3.77c.99.96,2.29,1.43,3.91,1.43Z"/>
            <path class="cls-4" d="M321.35,44.34v3.33c-2.26-1.02-4.07-1.53-5.41-1.53-.77,0-1.37.13-1.83.38-.45.26-.68.6-.68,1.02,0,.33.16.64.49.93.32.29,1.12.67,2.38,1.13,1.26.46,2.27.89,3.03,1.29.76.4,1.41.96,1.96,1.68.55.72.82,1.64.82,2.75,0,1.58-.6,2.84-1.8,3.77-1.2.94-2.78,1.4-4.74,1.4-2.12,0-4.17-.55-6.15-1.65v-3.67c1.14.77,2.15,1.32,3.03,1.67.88.35,1.81.53,2.8.53,1.67,0,2.5-.52,2.5-1.57,0-.36-.17-.7-.5-1.01-.33-.32-1.14-.7-2.41-1.16-1.27-.46-2.28-.88-3.03-1.27-.74-.39-1.39-.95-1.93-1.67-.54-.72-.81-1.65-.81-2.78,0-1.47.59-2.65,1.77-3.55s2.76-1.35,4.74-1.35c1.82,0,3.75.44,5.78,1.32Z"/>
          </g>
        </g>
        <g>
          <g>
            <path class="cls-3" d="M22.67,70.35c20.1,48.75,45.23,29.64,45.23,29.64.52-37.03-45.23-29.64-45.23-29.64Z"/>
            <path class="cls-3" d="M29.28,47.91c12.97,29.33,27.96,17.32,27.96,17.32-.26-22.52-27.96-17.32-27.96-17.32Z"/>
            <path class="cls-3" d="M36.67,29.59c6.83,22.77,18.96,15.33,18.96,15.33,1.9-16.59-18.96-15.33-18.96-15.33Z"/>
          </g>
          <path class="cls-2" d="M66.85,121.9h6.23c1.12-2.65,2.3-5.57,3.28-8.77l.02.02c.85-3.3,3.87-7.53,7.53-10.27,1.45-1.09,2.82-1.79,4.01-2.14.14-.05.28-.1.45-.13l.08-.03c1.15-.21,2.28-.6,3.36-1.17,6.39-3.41,8.39-12.16,4.46-19.52-2.35-4.41-6.3-7.33-10.46-8.23,2.59-3.68,2.53-9.2-.51-13.69-1.93-2.86-4.7-4.75-7.59-5.48.59-.47,3.78-3.29,2.01-8.33,0,0-.89-2.49-2.88-4.36-2.18-2.24-4.93-4.37-6.14-6.87-1.56-3.22-.39-4.69.15-5.16.17-.09.27-.13.27-.13,0,0-.06.02-.17.05.08-.06.13-.09.13-.09,0,0-.39.12-1.03.43-4.73,1.97-22.8,12.15-4.6,47.98,10.19,20.05,7.15,35.41,1.41,45.88ZM89.32,83.61c1.57,2.95.77,6.45-1.78,7.81-2.56,1.37-5.91.08-7.48-2.87-1.57-2.95-.77-6.45,1.78-7.81,2.56-1.37,5.91-.08,7.48,2.87ZM73.85,59.83c1.92-1.3,4.7-.54,6.21,1.69,1.51,2.23,1.18,5.1-.74,6.4-1.92,1.3-4.7.54-6.21-1.69-1.51-2.23-1.18-5.1.74-6.4ZM67.4,42.07c1.52-.95,3.65-.28,4.76,1.5,1.1,1.77.76,3.98-.76,4.93-1.52.95-3.65.28-4.75-1.5-1.1-1.77-.76-3.98.76-4.93Z"/>
        </g>
      </g>
    </g>
  </g>
</svg>