<?xml version="1.0" encoding="UTF-8"?>
<svg xmlns="http://www.w3.org/2000/svg" version="1.1" viewBox="0 0 126 126">
  <defs>
    <style>
      .cls-1 {
        fill: #1f8fb0;
      }
    </style>
  </defs>
  <!-- Generator: Adobe Illustrator 28.6.0, SVG Export Plug-In . SVG Version: 1.2.0 Build 709)  -->
  <g>
    <g id="Capa_1">
      <path class="cls-1" d="M11.6,6H0v113.6h11.6V6Z"/>
      <path class="cls-1" d="M74.9,97.4l-.6.6-.8.3-10.9,3.4-10.9,3.4-6.2,1.9,1.9-6.2,6.7-21.9.3-.8.6-.6,21.4-21.4,13.7-13.7V6H15.6v113.6h74.3v-37.2l-15,15Z"/>
      <path class="cls-1" d="M109.8,25.8l-6.6,6.6,16.2,16.2,6.6-6.6-16.2-16.2Z"/>
      <path class="cls-1" d="M50.5,101.7c7.3-2.2,14.6-4.5,21.9-6.7,14.2-14.2,28.5-28.5,42.8-42.8-5-5-10.1-10.1-15.2-15.2-14.3,14.3-28.5,28.5-42.8,42.8-2.2,7.1-4.4,14.4-6.7,21.9h0Z"/>
    </g>
  </g>
</svg>