<?xml version="1.0" encoding="UTF-8"?>
<svg id="Capa_1" xmlns="http://www.w3.org/2000/svg" version="1.1" viewBox="0 0 57 57">
  <!-- Generator: Adobe Illustrator 29.2.1, SVG Export Plug-In . SVG Version: 2.1.0 Build 116)  -->
  <defs>
    <style>
      .st0 {
        fill: #fcd547;
      }

      .st1 {
        fill: #32a552;
      }

      .st2 {
        fill: #ee184c;
      }

      .st3 {
        fill: #1f8fb0;
      }
    </style>
  </defs>
  <path class="st0" d="M28.5,32.6l-11.5,12.2v12.2h7.7v-8.2h7.7v8.2h7.7v-12.2l-11.5-12.2Z"/>
  <path class="st2" d="M28.5,24.4l11.5-12.2V4L36.2,0h-3.8l-3.8,4.1L24.7,0h-3.8l-3.8,4.1v8.2l11.5,12.2Z"/>
  <path class="st1" d="M1.6,21.2v6.7h6.3l-6.3-6.7Z"/>
  <path class="st1" d="M1.6,29.1v6.7h0s6.3-6.7,6.3-6.7H1.6Z"/>
  <path class="st1" d="M9.5,27.9h6.1l-11-11.6H1.6v3.2l7.9,8.4Z"/>
  <path class="st1" d="M15.6,29.1h-6.1l-7.9,8.4v3.2h3l11-11.6Z"/>
  <path class="st1" d="M13.1,16.3h-6.9l11.5,12.2-11.5,12.2h6.9l11.5-12.2-11.5-12.2Z"/>
  <path class="st3" d="M55.4,30.6h-3.8l-1.5,1.6h-8l-2-3.7.4-1h6.6l2.1,1.9.7-.9-2.4-2.2h-3.2v-1.6h5.8l1.5,1.6h3.8v-10.2h-11.5l-11.5,12.2,11.5,12.2h11.5v-10.2Z"/>
</svg>