<?xml version="1.0" encoding="UTF-8"?>
<svg xmlns="http://www.w3.org/2000/svg" version="1.1" viewBox="0 0 126 126">
  <!-- Generator: Adobe Illustrator 28.6.0, SVG Export Plug-In . SVG Version: 1.2.0 Build 709)  -->
  <g>
    <g id="Capa_1">
      <path d="M60.8,82.8c-.6,3.3-1.2,6.5-1.7,9.8-6,5.2-11.9,10.4-17.9,15.6L.2,118.1c0-11.4-.2-22.8-.2-34.2,6.4-2.4,12.9-4.9,19.3-7.3,0-5.8,0-11.6,0-17.4,1.2-3.6,2.4-7.2,3.5-10.8,8.3-12.5,16.6-25,25-37.5,1.6-1.1,3.2-2.2,4.7-3.4,1.9.5,3.9,1,5.8,1.5.5,3,.9,5.9,1.4,8.9-5,8.4-10,16.7-15,25.1-1.5,4.4-3.1,8.9-4.6,13.3,0,5.6,0,11.1,0,16.7,1.9.9,3.9,1.8,5.8,2.6.4-6.5.7-13,1.1-19.5,1.5-2.3,3-4.5,4.5-6.8h4.9c1.5,2.1,2.9,4.4,4.4,6.6,0,8.9,0,17.9,0,26.8h0Z"/>
      <path d="M65.2,82.8c.6,3.3,1.2,6.5,1.7,9.8,6,5.2,11.9,10.4,17.9,15.6l40.9,9.8c0-11.4.2-22.8.2-34.2-6.4-2.4-12.9-4.9-19.3-7.3,0-5.8,0-11.6,0-17.4-1.2-3.6-2.4-7.2-3.5-10.8-8.3-12.5-16.6-25-25-37.5-1.6-1.1-3.2-2.2-4.7-3.4-1.9.5-3.9,1-5.8,1.5-.5,3-.9,5.9-1.4,8.9,5,8.4,10,16.7,15,25.1,1.5,4.4,3.1,8.9,4.6,13.3,0,5.6,0,11.1,0,16.7-1.9.9-3.9,1.8-5.8,2.6-.4-6.5-.7-13-1.1-19.5-1.5-2.3-3-4.5-4.5-6.8h-4.9c-1.5,2.1-2.9,4.4-4.4,6.6,0,8.9,0,17.9,0,26.8h0Z"/>
    </g>
  </g>
</svg>