<?xml version="1.0" encoding="UTF-8"?><svg id="Layer_2" xmlns="http://www.w3.org/2000/svg" viewBox="0 0 431.31 347.68"><defs><style>.cls-1{fill:#2f557f;fill-rule:evenodd;}</style></defs><g id="Layer_2-2"><path class="cls-1" d="M407.06,313.82v20.42h-3.58l-.95-4.25h-.22c-2.63,3.3-5.04,4.81-10.07,4.81-5.43,0-9.46-2.8-9.46-8.9s4.59-9.29,14.38-9.57l5.09-.17v-1.79c0-4.98-2.29-6.66-6.21-6.66-3.13,0-5.99,1.12-8.45,2.29l-1.51-3.69c2.63-1.4,6.32-2.57,10.24-2.57,7.28,0,10.75,3.08,10.75,10.07ZM397.77,319.75c-7.5.28-9.91,2.41-9.91,6.21,0,3.36,2.24,4.87,5.48,4.87,5.04,0,8.84-2.74,8.84-8.56v-2.69l-4.42.17ZM383.11,291.95c-1.4,2.07-5.37,6.38-8,8.39h-3.25v-.67c1.62-2.07,4.03-5.76,5.32-8.28h5.93v.56ZM372.76,334.25h4.93v-29.99h-4.93v29.99ZM345.96,334.25h-11.14v-39.95h12.31c12.03,0,19.7,6.77,19.7,19.58,0,13.49-7.72,20.37-20.87,20.37M346.41,298.61h-6.55v31.34h5.43c10.8,0,16.23-5.37,16.23-15.9s-5.48-15.44-15.11-15.44M300.08,334.81c-7.95,0-13.77-5.65-13.77-15.61s5.32-15.5,13.93-15.5c8.11,0,13.82,5.6,13.82,15.5s-5.43,15.61-13.99,15.61M300.2,330.72c6.04,0,8.79-4.42,8.79-11.53s-2.74-11.36-8.84-11.36-8.73,4.25-8.73,11.36,2.68,11.53,8.79,11.53M280.95,314.72v19.53h-4.87v-19.3c0-4.7-1.96-7.11-6.1-7.11-5.82,0-8.11,3.47-8.11,9.85v16.56h-4.87v-19.3c0-4.7-1.96-7.11-6.16-7.11-6.04,0-8,3.86-8,10.86v15.55h-4.93v-29.99h3.97l.73,4.08h.28c1.84-3.13,5.26-4.64,8.84-4.64,4.59,0,7.72,1.62,9.18,5.04h.28c2.02-3.41,5.71-5.04,9.62-5.04,6.77,0,10.12,3.3,10.12,11.02M229.98,296.14c0,2.12-1.34,3.13-2.85,3.13-1.62,0-2.91-1.01-2.91-3.13s1.29-3.14,2.91-3.14c1.51,0,2.85.95,2.85,3.14ZM224.6,334.25h4.93v-29.99h-4.93v29.99ZM217.73,330.05l1.34,3.52c-1.06.67-3.19,1.23-5.48,1.23-4.7,0-8.79-2.02-8.79-9.29v-26.3l4.93-1.84v6.88h8.67v3.8h-8.67v17.34c0,3.64,1.96,5.38,4.7,5.38,1.12,0,2.63-.4,3.3-.73M199.71,319.2c0,10.24-4.93,15.61-12.37,15.61-4.64,0-7.55-2.02-9.28-4.37h-.34c.11,1.29.34,3.53.34,4.92v12.31h-4.93v-43.42h4.03l.67,4.08h.23c1.79-2.57,4.47-4.64,9.34-4.64,7.38,0,12.31,5.15,12.31,15.5M178.06,318.25v.95c0,7.39,2.01,11.53,8.56,11.53,5.43,0,8-4.87,8-11.58s-2.57-11.31-8.11-11.31c-6.1,0-8.34,3.41-8.45,10.41M167.77,317.24v2.96h-20.54c.17,6.77,3.58,10.41,9.57,10.41,2.91,0,5.88-.56,8.23-1.46l1.4,3.69c-3.08,1.34-5.77,1.96-9.85,1.96-8.56,0-14.44-5.32-14.44-15.33s5.32-15.78,13.26-15.78,12.37,5.38,12.37,13.54ZM147.34,316.29h15.28c-.06-5.09-2.3-8.56-7.27-8.56-4.7,0-7.5,3.19-8,8.56ZM162.9,291.95c-1.4,2.07-5.37,6.38-8,8.39h-3.25v-.67c1.62-2.07,4.03-5.76,5.32-8.28h5.93v.56ZM124.4,334.81c-4.48,0-8.45-.67-10.97-1.9l1.57-4.14c1.73.78,5.37,1.68,9.62,1.68,5.93,0,9.01-2.47,9.01-6.44s-2.18-5.59-9.4-8.22c-6.83-2.46-10.3-5.65-10.3-11.86s5.2-10.18,12.76-10.18c4.36,0,8,.89,11.02,2.24l-1.62,4.31c-2.8-1.18-6.04-2.12-9.51-2.12-4.98,0-7.55,2.35-7.55,5.82,0,4.03,2.24,5.65,8.73,8.06,7.05,2.63,10.91,5.26,10.91,11.53,0,7.1-5.54,11.25-14.27,11.25M88.04,334.25v-40.62l4.93-1.9v42.52h-4.93ZM82.66,317.24v2.96h-20.54c.17,6.77,3.58,10.41,9.57,10.41,2.91,0,5.88-.56,8.23-1.45l1.39,3.69c-3.07,1.34-5.76,1.96-9.85,1.96-8.56,0-14.43-5.32-14.43-15.33s5.32-15.78,13.26-15.78,12.37,5.37,12.37,13.54M62.24,316.28h15.28c-.06-5.09-2.3-8.56-7.28-8.56-4.7,0-7.5,3.19-8,8.56M24.87,319.31c0-10.3,4.93-15.61,12.37-15.61,4.65,0,7.44,1.96,9.29,4.42h.34c-.11-.95-.34-3.3-.34-4.42v-10.07l4.92-1.9v42.52h-3.97l-.73-4.03h-.22c-1.79,2.57-4.64,4.59-9.34,4.59-7.44,0-12.31-5.2-12.31-15.5M46.58,320.26v-.89c0-7.44-2.01-11.58-8.67-11.58-5.32,0-7.94,4.53-7.94,11.64s2.63,11.31,8,11.31c6.32,0,8.62-3.47,8.62-10.47"/><path class="cls-1" d="M431.31,253.82v20.42h-3.58l-.95-4.25h-.22c-2.63,3.3-5.04,4.81-10.07,4.81-5.43,0-9.45-2.8-9.45-8.9s4.59-9.29,14.38-9.57l5.09-.17v-1.79c0-4.98-2.29-6.66-6.21-6.66-3.13,0-5.98,1.12-8.45,2.29l-1.51-3.69c2.63-1.4,6.32-2.57,10.24-2.57,7.27,0,10.74,3.08,10.74,10.07ZM422.02,259.75c-7.5.28-9.91,2.41-9.91,6.21,0,3.36,2.24,4.87,5.48,4.87,5.04,0,8.84-2.74,8.84-8.56v-2.69l-4.42.17h0ZM403.45,270.05l1.34,3.52c-1.06.67-3.19,1.23-5.48,1.23-4.7,0-8.78-2.02-8.78-9.29v-26.3l4.93-1.84v6.88h8.67v3.81h-8.67v17.34c0,3.64,1.96,5.38,4.7,5.38,1.12,0,2.63-.39,3.3-.73M372.51,274.81c-4.2,0-7.11-.67-9.4-1.9l1.46-3.81c1.96.84,5.2,1.73,8.05,1.73,4.98,0,7.11-1.73,7.11-4.42,0-2.24-1.51-3.58-7.38-5.82-5.82-2.23-9.29-4.03-9.29-8.95s4.53-7.94,11.25-7.94c3.64,0,6.77.78,9.57,2.01l-1.51,3.97c-2.57-1.12-5.48-1.96-8.39-1.96-4.03,0-6.21,1.4-6.21,3.64,0,2.51,1.96,3.52,7.72,5.71,5.71,2.12,9.01,4.09,9.01,8.89,0,5.82-4.64,8.84-11.97,8.84M357.01,236.14c0,2.12-1.34,3.13-2.86,3.13-1.62,0-2.91-1.01-2.91-3.13s1.29-3.14,2.91-3.14c1.51,0,2.86.95,2.86,3.14ZM351.64,274.25h4.93v-29.99h-4.93v29.99ZM344.76,270.05l1.34,3.52c-1.07.67-3.19,1.23-5.48,1.23-4.7,0-8.79-2.02-8.79-9.29v-26.3l4.93-1.84v6.88h8.67v3.81h-8.67v17.34c0,3.64,1.96,5.38,4.7,5.38,1.12,0,2.63-.39,3.3-.73M324.73,254.72v19.53h-4.87v-19.19c0-4.81-2.12-7.22-6.71-7.22-6.66,0-8.79,3.86-8.79,10.86v15.55h-4.92v-29.99h3.97l.73,4.08h.28c1.96-3.13,5.65-4.64,9.46-4.64,7.16,0,10.85,3.3,10.85,11.02M294.12,257.24v2.96h-20.54c.17,6.77,3.58,10.41,9.57,10.41,2.91,0,5.88-.56,8.23-1.45l1.4,3.69c-3.08,1.34-5.76,1.96-9.85,1.96-8.56,0-14.44-5.32-14.44-15.33s5.32-15.78,13.26-15.78,12.37,5.37,12.37,13.54M273.7,256.28h15.28c-.05-5.09-2.29-8.56-7.27-8.56-4.7,0-7.5,3.19-8,8.56M238.29,244.26h5.26l6.38,17.68c.89,2.46,2.07,6.1,2.4,7.94h.22c.39-1.85,1.68-5.54,2.52-7.94l6.38-17.68h5.26l-11.42,29.99h-5.65l-11.36-29.99ZM207.62,259.31c0-10.3,4.92-15.61,12.37-15.61,4.64,0,7.44,1.96,9.28,4.42h.34c-.11-.95-.34-3.3-.34-4.42v-10.07l4.93-1.9v42.52h-3.97l-.73-4.03h-.23c-1.79,2.57-4.64,4.59-9.34,4.59-7.44,0-12.31-5.2-12.31-15.5M229.34,260.26v-.89c0-7.44-2.02-11.58-8.68-11.58-5.31,0-7.95,4.54-7.95,11.64s2.63,11.31,8,11.31c6.32,0,8.62-3.47,8.62-10.46M196.66,261.88h-15.84l-4.75,12.37h-5.09l15.61-40.12h4.53l15.55,40.12h-5.2l-4.81-12.37ZM190.67,245.32c-.33-.89-1.51-4.59-1.9-5.99-.56,2.3-1.29,4.7-1.74,5.99l-4.53,12.09h12.64l-4.48-12.09ZM154.14,253.82v20.42h-3.58l-.95-4.25h-.22c-2.63,3.3-5.04,4.81-10.07,4.81-5.43,0-9.46-2.8-9.46-8.9s4.59-9.29,14.38-9.57l5.09-.17v-1.79c0-4.98-2.29-6.66-6.21-6.66-3.13,0-5.98,1.12-8.45,2.29l-1.51-3.69c2.63-1.4,6.32-2.57,10.24-2.57,7.27,0,10.74,3.08,10.74,10.07ZM144.85,259.75c-7.5.28-9.9,2.41-9.9,6.21,0,3.36,2.24,4.87,5.49,4.87,5.03,0,8.84-2.74,8.84-8.56v-2.69l-4.42.17ZM124.09,236.14c0,2.12-1.34,3.13-2.85,3.13-1.62,0-2.91-1.01-2.91-3.13s1.29-3.14,2.91-3.14c1.51,0,2.85.95,2.85,3.14ZM118.72,274.25h4.92v-29.99h-4.92v29.99ZM100.77,274.81c-4.2,0-7.11-.67-9.4-1.9l1.45-3.81c1.96.84,5.21,1.73,8.06,1.73,4.98,0,7.1-1.73,7.1-4.42,0-2.24-1.51-3.58-7.38-5.82-5.82-2.23-9.29-4.03-9.29-8.95s4.53-7.94,11.25-7.94c3.64,0,6.77.78,9.57,2.01l-1.51,3.97c-2.57-1.12-5.48-1.96-8.39-1.96-4.03,0-6.21,1.4-6.21,3.64,0,2.51,1.96,3.52,7.72,5.71,5.71,2.12,9.01,4.09,9.01,8.89,0,5.82-4.64,8.84-11.97,8.84M86.72,257.24v2.96h-20.53c.17,6.77,3.58,10.41,9.57,10.41,2.91,0,5.88-.56,8.23-1.45l1.4,3.69c-3.08,1.34-5.76,1.96-9.85,1.96-8.56,0-14.44-5.32-14.44-15.33s5.32-15.78,13.26-15.78,12.37,5.37,12.37,13.54M66.3,256.28h15.27c-.05-5.09-2.29-8.56-7.27-8.56-4.7,0-7.5,3.19-8,8.56M49.46,274.25v-40.62l4.92-1.9v42.52h-4.92ZM16.73,279.34c0-3.86,2.18-6.32,6.55-7.39-1.73-.84-2.63-2.29-2.63-4.19,0-2.07,1.23-3.81,3.64-5.26-3.41-1.4-5.2-4.98-5.2-8.45,0-6.99,4.36-10.35,11.19-10.35,1.57,0,2.91.17,4.08.56h10.35l-1.45,3.81h-3.91c1.17,1.57,1.79,3.52,1.79,5.82,0,6.21-4.53,9.62-11.02,9.62-1.01,0-1.79-.05-2.35-.17-1.85,1.01-2.74,2.24-2.74,3.64,0,1.51,1.51,2.3,4.42,2.3h5.09c6.04,0,9.79,2.74,9.79,8.11,0,6.88-5.15,10.29-15.44,10.29-7,0-12.14-2.41-12.14-8.34M39.61,277.83c0-1.62-.45-2.68-1.34-3.25-.95-.56-2.74-.84-5.43-.84h-5.15c-4.19,0-6.26,1.79-6.26,5.43,0,3.13,2.46,4.75,7.38,4.75,7.22,0,10.8-2.01,10.8-6.1M36.26,253.82c0-4.36-2.07-6.55-6.16-6.55s-6.16,2.24-6.16,6.6,2.07,6.21,6.21,6.21,6.1-2.12,6.1-6.27M0,274.25l1.68-4.48h3.02v-31.05H0v-4.42h14.44l-1.68,4.42h-3.02v31.05h4.7v4.48H0Z"/><path class="cls-1" d="M240.24,123.23c-9.6,9.59-14.24,14.16-16.63,25.79-.17.87-1.17.87-1.17,0v-14.25c0-9.14,8.14-17.49,17.84-27.19l7.8-7.8c10.93-10.93,13.56-23.58,4.88-31.11-.73-.62-.35-1.4.6-.96,10.83,4.94,19.37,22.87.8,41.44l-14.11,14.07ZM222.39,159.86v14.35c0,.87.99.87,1.17,0,2.4-11.63,7.03-16.29,16.63-25.88l15.2-15.16c18.57-18.57,21.78-36.54,12.33-48.09-.63-.77-1.31-.31-.9.62,6.25,14.13-8.73,29.11-15.86,36.24l-10.75,10.75c-9.7,9.69-17.84,18.05-17.84,27.19h0ZM181.2,113.7c-18.57,18.57-10.03,36.5.8,41.44.95.43,1.33-.34.6-.96-8.69-7.53-6.04-20.18,4.88-31.11l30.87-30.86c9.69-9.7,17.83-18.06,17.83-27.19v-14.25c0-.87-.99-.87-1.18,0-2.39,11.63-7.03,16.2-16.63,25.79l-37.17,37.14ZM236.22,39.94v-14.35c0-.87-.99-.87-1.17,0-2.4,11.63-7.04,16.29-16.63,25.88l-38.26,38.23c-18.57,18.57-21.78,36.54-12.33,48.09.62.77,1.31.31.89-.62-6.25-14.13,8.73-29.11,15.86-36.24l33.81-33.81c9.69-9.69,17.84-18.05,17.84-27.19ZM176.13,68.73c-15.97,15.97-18.2,32.86-14.79,43.88.29.93,1.1.99,1.09.02-.08-9.26,2.59-17.22,19.49-34.11l36.43-36.42c9.69-9.7,17.83-18.05,17.83-27.19V.65c0-.87-.99-.87-1.17,0-2.4,11.63-7.05,16.22-16.64,25.82l-42.24,42.26ZM198.46,184.33c-.32,0-.58-.26-.58-.59v-8.27c0-.33.26-.58.58-.58h13.99c.32,0,.58-.26.58-.58-.04-7.43-5.64-12.47-28.07-8.57l-48.45,8.33s-36.91,36.9-37.21,37.25c-.5.6-.12,1.37.66,1.3.68-.06,80.6-13.87,80.6-13.87,18.35-3.09,28.36,5.64,31.35,13.82.26.72,1.12.61,1.12-.08v-27.59c0-.32-.26-.58-.58-.58h-14.01ZM256.28,166.72l-16.02,16.03c-9.69,9.69-17.83,18.05-17.83,27.19v2.55c.01.69.87.8,1.13.08,3-8.18,13-16.91,31.34-13.82,0,0,79.94,13.81,80.61,13.87.78.07,1.16-.7.66-1.3-.31-.36-37.2-37.25-37.2-37.25l-42.69-7.34ZM274.21,110.25c-.29-.93-1.1-.99-1.1-.02.08,9.26-2.58,17.22-19.48,34.12l-13.37,13.36c-6.08,6.08-11.55,11.63-14.78,17.18h13.2l1.57-1.56,19.17-19.2c15.97-15.97,18.2-32.86,14.79-43.88ZM222.43,199.14c0,.87.99.87,1.18,0,1.31-6.4,3.32-10.67,6.46-14.82h-7.05c-.15,0-.3.07-.41.17-.11.11-.17.26-.17.41v14.23ZM324.52,185.64c0-3.44,2.49-5.94,5.94-5.94s5.94,2.5,5.94,5.94-2.49,5.94-5.94,5.94-5.94-2.49-5.94-5.94ZM335.48,185.64c0-2.8-2.09-5.08-5.02-5.08s-5.03,2.12-5.03,5.08c0,2.8,2.1,5.09,5.03,5.09,2.77,0,5.02-2.12,5.02-5.09ZM328.24,182.12h2.07c1.77,0,2.55.69,2.55,2.09,0,1.01-.61,1.58-1.26,1.84l1.88,3.14h-1.4l-1.61-2.8h-1.01v2.8h-1.23v-7.07ZM330.28,185.39c.84,0,1.34-.47,1.34-1.15,0-.76-.42-1.08-1.36-1.08h-.79v2.23h.81Z"/></g></svg>