<svg width="55" height="82" viewBox="0 0 55 82" fill="none" xmlns="http://www.w3.org/2000/svg">
<path d="M0.585938 62.9186H3.26689L5.45105 66.6786L7.63521 62.9186H10.3162V72.6309H7.792V67.0533L5.45105 70.8551H5.39878L3.07076 67.0814V72.6312H0.585938V62.9189V62.9186Z" fill="black"/>
<path d="M13.1667 62.9186H15.717V72.6309H13.1667V62.9186Z" fill="black"/>
<path d="M17.8748 71.1878L19.2873 69.398C20.1896 70.1611 21.1967 70.5635 22.256 70.5635C22.936 70.5635 23.3021 70.3137 23.3021 69.8976V69.8699C23.3021 69.4674 23.0015 69.2456 21.7589 68.9404C19.8102 68.4688 18.3064 67.886 18.3064 65.8881V65.8604C18.3064 64.0568 19.6534 62.7526 21.8505 62.7526C23.4069 62.7526 24.6231 63.1965 25.617 64.0428L24.3483 65.9435C23.5112 65.3193 22.5957 64.9863 21.7851 64.9863C21.1702 64.9863 20.8696 65.2638 20.8696 65.6105V65.6383C20.8696 66.0821 21.1834 66.2765 22.4521 66.5818C24.5576 67.0674 25.8654 67.7888 25.8654 69.6063V69.634C25.8654 71.6182 24.3876 72.7975 22.1644 72.7975C20.5428 72.7975 18.9996 72.2565 17.8748 71.1881V71.1878Z" fill="black"/>
<path d="M28.3237 62.9186H30.874V72.6309H28.3237V62.9186Z" fill="black"/>
<path d="M33.4111 67.8025V67.7748C33.4111 64.986 35.5298 62.7246 38.3546 62.7246C41.1795 62.7246 43.272 64.9583 43.272 67.747V67.7748C43.272 70.5635 41.1533 72.825 38.3285 72.825C35.5037 72.825 33.4111 70.5913 33.4111 67.8025ZM40.6824 67.8025V67.7748C40.6824 66.3734 39.7276 65.1523 38.3282 65.1523C36.9289 65.1523 36.0134 66.3457 36.0134 67.7467V67.7745C36.0134 69.1759 36.9682 70.3969 38.3544 70.3969C39.7405 70.3969 40.6824 69.2036 40.6824 67.8025ZM38.8121 59.6997L41.1269 60.4906L39.2044 62.2664H37.4518L38.8118 59.6997H38.8121Z" fill="black"/>
<path d="M45.7695 62.9186H48.1366L51.903 68.0523V62.9186H54.414V72.6309H52.1908L48.2805 67.3032V72.6309H45.7695V62.9186Z" fill="black"/>
<path d="M3.32617 75.5609H8.20758V77.0786H4.99077V78.0537H7.90411V79.461H4.99077V80.482H8.25085V81.9997H3.32617V75.5609Z" fill="black"/>
<path d="M11.5283 78.7253L9.53409 75.5609H11.4676L12.5427 77.3731L13.6265 75.5609H15.5167L13.5225 78.7068L15.6035 82H13.67L12.5081 80.059L11.3375 82H9.44727L11.5283 78.7253Z" fill="black"/>
<path d="M18.4995 77.1248H16.6787V75.5609H22.0024V77.1248H20.1816V82H18.4995V77.1248Z" fill="black"/>
<path d="M23.5198 75.5609H26.3898C27.3177 75.5609 27.9592 75.8185 28.3666 76.26C28.7221 76.6279 28.9042 77.1248 28.9042 77.7595V77.7779C28.9042 78.7623 28.4099 79.4151 27.6557 79.7556L29.1037 82H27.1614L25.9388 80.0498H25.2018V82H23.5198V75.5612V75.5609ZM26.3117 78.6517C26.8841 78.6517 27.2134 78.3575 27.2134 77.8882V77.8698C27.2134 77.3639 26.8667 77.1063 26.303 77.1063H25.2018V78.6517H26.3117Z" fill="black"/>
<path d="M30.5342 75.5609H35.4156V77.0786H32.1988V78.0537H35.1121V79.461H32.1988V80.482H35.4589V81.9997H30.5342V75.5609Z" fill="black"/>
<path d="M37.0979 75.5609H38.8755L40.3234 78.0537L41.7714 75.5609H43.5489V81.9997H41.8756V78.302L40.3237 80.8225H40.2891L38.7459 78.3205V82H37.0985V75.5612L37.0979 75.5609Z" fill="black"/>
<path d="M47.5025 75.515H49.1238L51.7075 82H49.9041L49.4618 80.8502H47.1209L46.6873 82H44.9185L47.5022 75.515H47.5025ZM48.9766 79.461L48.3002 77.6307L47.6151 79.461H48.9763H48.9766Z" fill="black"/>
<path d="M27.5001 32.6694L15.9656 44.9066V57.1434H23.6552V48.9855H31.3449V57.1434H39.0348V44.9066L27.5001 32.6694Z" fill="#FCD547"/>
<path d="M27.5001 24.5115L39.0348 12.2746V4.1164L35.19 0.0374451H31.3449L27.5001 4.1164L23.6552 0.0374451H19.8104L15.9656 4.1164V12.2746L27.5001 24.5115Z" fill="#EE184C"/>
<path d="M0.585938 21.2872V27.9862H6.90042L0.585938 21.2872Z" fill="#32A552"/>
<path d="M0.585938 29.1947V35.9328V35.894L6.9007 29.1947H0.585938Z" fill="#32A552"/>
<path d="M8.51162 27.9862H14.5903L3.62515 16.3536H0.585938V19.5779L8.51162 27.9862Z" fill="#32A552"/>
<path d="M14.5903 29.1947H8.51162L0.585938 37.603V40.8276H3.62515L14.5903 29.1947Z" fill="#32A552"/>
<path d="M12.1207 16.3536H5.23633L16.7711 28.5905L5.23633 40.8276H12.1207L23.6551 28.5905L12.1207 16.3536Z" fill="#32A552"/>
<path d="M54.414 30.6656H50.5691L49.0509 32.2762H44.4646H41.0207L39.0347 28.6152L39.4491 27.6639H46.0364L48.1571 29.5936L48.8986 28.676L46.4579 26.4554H43.2965V24.905H49.0509L50.5691 26.5154H54.414V16.3536H42.8795L31.3447 28.5905L42.8795 40.8276H54.414V30.6656Z" fill="#1F8FB0"/>
<path d="M0.585938 62.9186H3.26689L5.45105 66.6786L7.63521 62.9186H10.3162V72.6309H7.792V67.0533L5.45105 70.8551H5.39878L3.07076 67.0814V72.6312H0.585938V62.9189V62.9186Z" fill="black"/>
<path d="M13.1667 62.9186H15.717V72.6309H13.1667V62.9186Z" fill="black"/>
<path d="M17.8748 71.1878L19.2873 69.398C20.1896 70.1611 21.1967 70.5635 22.256 70.5635C22.936 70.5635 23.3021 70.3137 23.3021 69.8976V69.8699C23.3021 69.4674 23.0015 69.2456 21.7589 68.9404C19.8102 68.4688 18.3064 67.886 18.3064 65.8881V65.8604C18.3064 64.0568 19.6534 62.7526 21.8505 62.7526C23.4069 62.7526 24.6231 63.1965 25.617 64.0428L24.3483 65.9435C23.5112 65.3193 22.5957 64.9863 21.7851 64.9863C21.1702 64.9863 20.8696 65.2638 20.8696 65.6105V65.6383C20.8696 66.0821 21.1834 66.2765 22.4521 66.5818C24.5576 67.0674 25.8654 67.7888 25.8654 69.6063V69.634C25.8654 71.6182 24.3876 72.7975 22.1644 72.7975C20.5428 72.7975 18.9996 72.2565 17.8748 71.1881V71.1878Z" fill="black"/>
<path d="M28.3237 62.9186H30.874V72.6309H28.3237V62.9186Z" fill="black"/>
<path d="M33.4111 67.8025V67.7748C33.4111 64.986 35.5298 62.7246 38.3546 62.7246C41.1795 62.7246 43.272 64.9583 43.272 67.747V67.7748C43.272 70.5635 41.1533 72.825 38.3285 72.825C35.5037 72.825 33.4111 70.5913 33.4111 67.8025ZM40.6824 67.8025V67.7748C40.6824 66.3734 39.7276 65.1523 38.3282 65.1523C36.9289 65.1523 36.0134 66.3457 36.0134 67.7467V67.7745C36.0134 69.1759 36.9682 70.3969 38.3544 70.3969C39.7405 70.3969 40.6824 69.2036 40.6824 67.8025ZM38.8121 59.6997L41.1269 60.4906L39.2044 62.2664H37.4518L38.8118 59.6997H38.8121Z" fill="black"/>
<path d="M45.7695 62.9186H48.1366L51.903 68.0523V62.9186H54.414V72.6309H52.1908L48.2805 67.3032V72.6309H45.7695V62.9186Z" fill="black"/>
<path d="M3.32617 75.561H8.20758V77.0787H4.99077V78.0538H7.90411V79.4611H4.99077V80.4821H8.25085V81.9998H3.32617V75.561Z" fill="black"/>
<path d="M11.5283 78.7254L9.53409 75.561H11.4676L12.5427 77.3732L13.6265 75.561H15.5167L13.5225 78.7069L15.6035 82H13.67L12.5081 80.0591L11.3375 82H9.44727L11.5283 78.7254Z" fill="black"/>
<path d="M18.4995 77.1249H16.6787V75.561H22.0024V77.1249H20.1816V82H18.4995V77.1249Z" fill="black"/>
<path d="M23.5198 75.561H26.3898C27.3177 75.561 27.9592 75.8186 28.3666 76.2601C28.7221 76.6279 28.9042 77.1249 28.9042 77.7595V77.778C28.9042 78.7623 28.4099 79.4152 27.6557 79.7556L29.1037 82H27.1614L25.9388 80.0499H25.2018V82H23.5198V75.5613V75.561ZM26.3117 78.6517C26.8841 78.6517 27.2134 78.3575 27.2134 77.8883V77.8698C27.2134 77.3639 26.8667 77.1064 26.303 77.1064H25.2018V78.6517H26.3117Z" fill="black"/>
<path d="M30.5342 75.561H35.4156V77.0787H32.1988V78.0538H35.1121V79.4611H32.1988V80.4821H35.4589V81.9998H30.5342V75.561Z" fill="black"/>
<path d="M37.0979 75.561H38.8755L40.3234 78.0538L41.7714 75.561H43.5489V81.9997H41.8756V78.3021L40.3237 80.8225H40.2891L38.7459 78.3206V82H37.0985V75.5613L37.0979 75.561Z" fill="black"/>
<path d="M47.5025 75.5151H49.1238L51.7075 82H49.9041L49.4618 80.8502H47.1209L46.6873 82H44.9185L47.5022 75.5151H47.5025ZM48.9766 79.4611L48.3002 77.6307L47.6151 79.4611H48.9763H48.9766Z" fill="black"/>
</svg>
