<?xml version="1.0" encoding="UTF-8"?>
<svg id="Capa_2" data-name="Capa 2" xmlns="http://www.w3.org/2000/svg" viewBox="0 0 566.62 157.27">
  <defs>
    <style>
      .cls-1 {
        fill: #8dc63f;
      }

      .cls-2 {
        fill: #572700;
      }

      .cls-3 {
        fill: #f68a33;
      }
    </style>
  </defs>
  <g id="Layer_1" data-name="Layer 1">
    <g>
      <g>
        <path class="cls-2" d="M265.09,85.58c1.69,0,2.53.01,4.22.03.83,2.82,1.24,4.23,2.06,7.04.09.34.14.51.24.85.02.06.03.09.04.14.22.77.41,2.58.41,2.58,0,0,.19-1.72.4-2.57.09-.35.17-.67.27-.99.91-2.8,1.36-4.2,2.28-7,1.58.02,2.37.03,3.95.05-1.95,5.73-2.92,8.6-4.83,14.33-1.81-.02-2.72-.03-4.52-.05-1.78-5.77-2.68-8.66-4.5-14.42Z"/>
        <path class="cls-2" d="M285.12,100.22c.11-5.76.16-8.64.27-14.39,1.66.03,2.5.05,4.16.09-.12,5.76-.19,8.64-.31,14.4-1.65-.04-2.47-.05-4.12-.09Z"/>
        <path class="cls-2" d="M295.99,86.07c1.69.05,2.53.07,4.22.12.76,2.84,1.15,4.25,1.9,7.09.09.34.13.52.22.86.01.06.02.08.04.14.2.78.35,2.59.35,2.59,0,0,.22-1.72.45-2.56.09-.35.18-.67.3-.98.97-2.79,1.45-4.18,2.43-6.96,1.58.05,2.37.08,3.95.14-2.08,5.69-3.11,8.54-5.14,14.24-1.81-.06-2.71-.09-4.52-.15-1.65-5.81-2.49-8.72-4.18-14.53Z"/>
        <path class="cls-2" d="M315.71,101.16c.23-5.76.35-8.64.58-14.4,1.66.07,2.49.1,4.16.18-.25,5.76-.38,8.64-.63,14.4-1.65-.07-2.47-.11-4.11-.18Z"/>
        <path class="cls-2" d="M327.37,101.69c.28-5.76.42-8.64.7-14.4,2.44.12,3.67.18,6.11.31,3.66.2,5.37,1.75,5.28,4.33-.06,1.84-.94,3.2-2.19,3.77-.12.05-.25.1-.38.16,1.18,2.6,1.77,3.9,2.95,6.51-1.79-.11-2.69-.16-4.48-.26-.85-2.23-1.28-3.34-2.14-5.56-.6-.03-.9-.05-1.49-.08-.11,2.17-.17,3.26-.28,5.43-.02,0-4.09-.21-4.09-.21ZM333.38,93.4c1.33.07,1.88-.39,1.92-1.29.04-.88-.46-1.36-1.72-1.42-.62-.03-.92-.05-1.54-.08-.06,1.09-.08,1.63-.14,2.71.59.03.88.05,1.47.08Z"/>
        <path class="cls-2" d="M357.56,100.27c1.46-.64,2.19-.95,3.66-1.59.07.2.17.37.27.52.66.93,1.58,1.56,2.63,1.65.16.01.31.03.45.03.55.01.95-.16,1.17-.35.21-.18.34-.41.36-.65.02-.3-.09-.62-.37-.82-.15-.11-.33-.23-.57-.3-.14-.07-.22-.1-.36-.17-.12-.04-.18-.06-.3-.1-.09-.04-.14-.06-.24-.1-.28-.1-.42-.15-.7-.25-.26-.08-.58-.22-1.14-.44-.18-.07-.34-.15-.52-.24-2.09-1.03-3.13-2.26-3.01-3.86.03-.44.15-.92.35-1.45.71-1.84,2.82-3.1,5.72-2.89.18.01.4.03.58.06,2.46.39,4.27,1.64,4.98,3.63-1.31.55-1.97.83-3.28,1.38-.05-.14-.11-.29-.17-.41-.54-1.05-1.54-1.75-2.44-1.82-.47-.04-.89.09-1.2.33-.21.16-.34.39-.35.61-.02.24.11.48.32.66.12.1.24.15.56.32.08.04.17.09.25.14.04.01.06.02.1.03.31.14.47.2.78.34.03.01.05.02.08.03.33.15.5.23.84.38.44.22.67.33,1.11.55.2.08.4.17.57.26,2.05,1.05,2.98,2.35,2.85,3.99-.03.4-.12.79-.26,1.21-.68,2.07-3.17,3.59-6.44,3.34-.45-.03-.92-.11-1.4-.2-2.3-.47-4.04-1.87-4.88-3.82Z"/>
        <path class="cls-2" d="M376.21,104.97c2.48-5.59,3.73-8.38,6.26-13.96,1.82.16,2.73.24,4.56.41,1.49,5.94,2.23,8.91,3.67,14.86-1.71-.16-2.57-.24-4.29-.4-.26-1.09-.39-1.63-.66-2.72-1.68-.15-2.52-.23-4.19-.38-.43,1.02-.65,1.53-1.08,2.56-.04,0-4.27-.37-4.27-.37ZM385.14,99.97c-.19-1.2-.28-1.8-.47-2.99-.23-1.54-.22-3.07-.22-3.07,0,0-.21,1.44-.74,2.99-.4,1.15-.59,1.72-.99,2.86.97.09,1.45.13,2.43.22Z"/>
        <path class="cls-2" d="M397.13,106.9c.57-5.75.85-8.63,1.42-14.39,1.65.16,2.47.25,4.12.42-.45,4.48-.68,6.72-1.14,11.2,2.46.25,3.69.38,6.14.64-.13,1.27-.2,1.91-.34,3.18-4.08-.44-6.13-.65-10.21-1.06Z"/>
        <path class="cls-2" d="M414.59,102.57c.37-3.31.55-4.96.92-8.27,1.66.18,2.48.28,4.14.47-.38,3.37-.57,5.05-.96,8.42-.23,2,.28,2.97,1.43,3.21.25.05.61.1.87.1,1.19.03,1.89-.8,2.12-2.8.39-3.37.59-5.05.98-8.42,1.65.19,2.47.29,4.12.49-.4,3.31-.59,4.96-.99,8.26-.44,3.72-2.43,5.6-5.93,5.73-.37.01-.74,0-1.11-.05-.38-.04-.75-.11-1.11-.21-3.38-.93-4.9-3.22-4.49-6.94Z"/>
        <path class="cls-2" d="M434.01,111.07c.72-5.75,1.08-8.62,1.8-14.37,1.87.24,2.8.35,4.66.59,5.24.68,7.64,2.98,7.02,7.58-.1.71-.26,1.5-.5,2.31-1.02,3.53-3.53,5.11-7.09,4.64-2.36-.31-3.54-.46-5.89-.76ZM439.65,108.54c1.81.24,2.79-.59,3.18-3.16.07-.48.14-.96.16-1.39.13-2.22-.67-3.28-2.28-3.49-.47-.06-.71-.09-1.18-.15-.41,3.22-.62,4.83-1.03,8.04.46.06.69.09,1.16.15Z"/>
        <path class="cls-2" d="M451.72,113.42c2.78-5.46,4.19-8.19,7.01-13.64,1.81.26,2.72.39,4.54.65,1.17,6.03,1.74,9.04,2.87,15.08-1.7-.26-2.56-.38-4.26-.63-.2-1.1-.3-1.65-.51-2.75-1.67-.24-2.5-.37-4.17-.6-.49,1-.73,1.5-1.22,2.5-.04,0-4.25-.6-4.25-.6ZM460.92,108.9c-.12-1.21-.19-1.82-.31-3.03-.15-1.55-.05-3.09-.05-3.09,0,0-.29,1.43-.9,2.95-.46,1.13-.69,1.69-1.15,2.81.97.14,1.45.21,2.42.35Z"/>
        <path class="cls-2" d="M472.51,116.48c.88-5.73,1.32-8.6,2.2-14.33,2.57.4,3.86.6,6.43,1,3.39.54,4.73,2.02,4.44,4.09-.23,1.72-1.23,2.66-2.87,2.97-.17.03-.47.07-.47.07,0,0,.2.07.3.11,1.79.69,2.64,2.1,2.37,3.76-.05.34-.15.67-.29,1.01-.79,1.95-2.53,2.84-5.23,2.41-2.75-.44-4.12-.65-6.87-1.08ZM479.32,108.44c1.22.19,1.67-.02,1.92-.67.04-.09.07-.21.08-.29.11-.69-.42-1.16-1.64-1.35-.55-.09-.82-.13-1.37-.22-.14.92-.22,1.38-.36,2.31,0,0,1.34.21,1.36.22ZM478.56,114.2c1.42.22,2-.12,2.15-1.01.15-.86-.3-1.36-1.56-1.56-.68-.11-1.01-.16-1.68-.27-.16,1.04-.24,1.56-.41,2.6.6.09.9.14,1.5.24Z"/>
        <path class="cls-2" d="M491.28,119.51c.96-5.72,1.43-8.59,2.39-14.31,1.64.28,2.46.41,4.09.69-.76,4.46-1.14,6.68-1.89,11.14,2.44.42,3.66.63,6.1,1.06-.22,1.27-.33,1.9-.55,3.17-4.05-.71-6.08-1.06-10.14-1.74Z"/>
        <path class="cls-2" d="M507.95,122.42c1.03-5.72,1.54-8.57,2.56-14.29,4.08.74,6.11,1.11,10.19,1.87-.23,1.25-.35,1.87-.58,3.12-2.42-.46-3.64-.68-6.06-1.13-.17.91-.25,1.37-.41,2.28,1.88.35,2.82.52,4.7.87-.23,1.25-.35,1.87-.58,3.12-1.88-.35-2.83-.53-4.71-.87-.19,1.05-.28,1.57-.48,2.61,2.41.44,3.62.67,6.03,1.12-.23,1.26-.35,1.88-.59,3.14-4.02-.76-6.04-1.13-10.06-1.86Z"/>
      </g>
      <g>
        <path class="cls-1" d="M77.02,64.57c4.29,1.84,12.41,3.5,18.9,2.77,7.97-.9,11.17-4.44,10.71-8.86-.48-4.56-3.93-6.32-12.97-8.5-9.2-2.21-21-5.77-22.48-17.12-1.9-14.64,13.05-22.97,25.56-24.31,6.75-.72,13.86-.33,20.35,1.94-1.08,4.91-1.62,7.37-2.68,12.28-3.2-1.36-9.52-2.95-16.06-2.23-6.7.74-10,4.21-9.53,8.35.49,4.28,4.39,6.06,13.87,7.95,9.78,1.95,20.45,7.31,21.48,18.51,1.41,15.29-14.33,23.27-27.02,24.16-7.51.53-14.8.48-22.23-2.07.83-5.14,1.25-7.72,2.1-12.86Z"/>
        <path class="cls-1" d="M162.32,73.76c-19.9,1.43-37.11-11.68-38.97-31.89-2.01-21.8,14.43-37.42,35.46-38.89,20.24-1.41,37.82,11.84,38.71,32.71.89,20.88-14.48,36.71-35.06,38.06-.06,0-.09,0-.15.01ZM162.09,61.36c12.13-.81,16.97-13.84,16.35-24.31-.62-10.56-7.13-22.48-19.26-21.68-12.5.83-17.65,13.44-16.8,24.42.81,10.47,7.51,22.42,19.56,21.58.06,0,.09,0,.15-.01Z"/>
        <path class="cls-1" d="M242.65,1.07c-3.75,12.14-7.43,24.3-11.04,36.48-1.42,4.36-2.67,9.55-3.63,13.34-.18,0-.27,0-.45.01-1.12-3.74-2.88-8.87-4.49-13.01-4.67-12.03-9.44-24.02-14.28-35.99-6.98.25-13.96.55-20.93.89,10.09,20.26,19.86,40.66,29.34,61.21.05.11.47,1.08.47,1.08,5.3,16.57-2.9,33.55-21.14,35.73-23.78,4.23-54.62-13.49-77.75-14.7-12.51-.65-17.68.89-30.2,3.66-1.53-.19-3.55-.39-4.32-.46-4.05-.37-6.83-1.4-8.2-1.91-10.68-3.99-13.06-14.2-20.67-20.55-5.51-4.6-15.86-.21-17.38.4-1.53.62-3.82.07-3.82.07t1.39,3.3c1.38,3.28-.45,12.43,6.91,18.23,7.6,6,18.25,5.24,26.73,1.39-9.43-4.05-24.47-8.63-29.72-18.52,9.12,7.64,20.04,12.53,30.98,16.5,3.91,1.42,8.04,2.53,12.23,3-4.35,1.2-8.63,2.67-12.81,4.41-7.19,2.47-13.99,6.21-20.1,10.31-16.19,10.85-31.96,24.3-42.22,41.45,1.33-18.17,26.9-34.72,39.3-44.28-15.54-2.84-33.88.94-43.09,14.7-7.45,11.13-1.51,22.12-1.77,33.35-.13,5.77-.48,6.1-.48,6.1,0,0,3.31-2.09,5.94-1.8,9.28,1.01,21.41.54,27.26-7.52,10.09-13.92,8.48-31.09,24.9-42.28,23-15.77,47.19-15.18,47.69-15.19-4.85,2.02-8.62,5.98-9.95,7.5-4.84,5.56-9.28,11.59-11.83,18.91-.17-7.36,6.41-14.28,10.47-19.69,0,0-11.27.34-14.52,9.06-2.11,5.67,1.95,10.2,2.29,12.48.34,2.3.35,2.3.35,2.3,0,0,1.05-1.03,2.08-1.16,1.02-.13,7.73-.7,9.56-5.11,1.83-4.41-.99-11.12,5.03-17.98.62-.71,1.89-2.12,4.09-3.52.55-.35,2.27-1.45,3.01-1.98.35-.26.79-.55,1.27-.83,27.11-2.45,47.24,11.16,72.46,13.11,10,.59,20.39-.66,29.26-5.58,8.81-5.3,16.28-13.59,21.4-22.43,4.77-9.07,8.48-18.62,12.21-28.15,5.97-15.55,12.09-31.04,18.35-46.47-8.07,0-12.11.02-20.18.13Z"/>
      </g>
      <g>
        <path class="cls-3" d="M265.48,21.2c.04-7.82-.24-14.39-.52-20.26,6.47,0,9.7.03,16.17.11.31,4.03.47,6.05.77,10.08.18,0,.27,0,.46,0C287.57,3.45,296.58-.27,305.67.01c8.63.27,17.05,4.98,20.24,13.33.12,0,.19,0,.31.01,2.77-3.67,6.05-6.3,9.46-8.12,4.41-2.35,9.31-3.59,15.61-3.23,16.58.93,24.1,15.96,22.64,31.19-1.05,13.38-2.09,26.76-3.14,40.14-7.04-.55-10.57-.8-17.61-1.26.82-12.54,1.65-25.09,2.47-37.63.83-8.32-2.25-18.44-12.09-18.83-6.32-.25-11.38,3.64-13.57,8.43-.68,1.5-1.09,3.74-1.18,5.69-.65,13.62-1.3,27.23-1.94,40.85-7.05-.33-10.58-.48-17.64-.72.46-13.15.93-26.3,1.39-39.45.62-7.86-3.37-16.47-12.26-16.59-6.95-.1-12.03,4.87-13.76,9.38-.67,1.74-.98,3.76-1.01,5.72-.23,13.42-.45,26.84-.68,40.27-7.06-.12-10.59-.16-17.65-.19.08-15.93.15-31.86.22-47.79Z"/>
        <path class="cls-3" d="M436.23,63.36c-.75,6.14-1.19,12.18-.83,16.47-6.49-.8-9.74-1.18-16.24-1.91-.19-3.08-.29-4.61-.48-7.69-.18-.02-.26-.03-.44-.05-5.81,5.63-14.24,7.63-22.08,6.9-11.5-1.06-21.67-10.09-20.79-22.25,1.59-22,29.18-23.63,45.75-21.65.05-.45.07-.67.12-1.12,1.07-8.22-6.42-12.93-13.78-13.42-6.79-.45-14.03.37-20.41,3.22-1.07-4.6-1.62-6.9-2.71-11.49,8.9-3.83,18.29-4.12,27.57-3.57,17.79,1.06,29.74,13.78,27.34,32.14-1,8.14-2,16.28-3,24.42ZM420.33,44.4c-8.6-1.21-25.46-1.9-26.67,10.17-.67,6.66,3.67,10.2,9.43,10.78,7.38.73,13.06-3.18,15.35-7.86.59-1.2.72-2.47.86-3.72.41-3.74.62-5.62,1.03-9.36Z"/>
        <path class="cls-3" d="M445.21,34.29c.87-7.32,1.76-14.62,2.15-21.98,6.5.8,9.74,1.22,16.23,2.09-.4,5.17-.6,7.76-1,12.93.18.02.27.04.46.06,4.44-8.06,13.42-12.74,22.49-11.44,1.82.26,2.88.58,4.37,1.09-.99,6.4-1.48,9.6-2.47,16.01-1.62-.53-3.28-.91-5.54-1.26-7.94-1.25-15.78,2.87-18.46,10.58-.52,1.48-.91,3.28-1.16,5.1-1.64,11.76-3.27,23.51-4.9,35.27-7.19-1-10.78-1.48-17.98-2.39,1.94-15.35,3.88-30.7,5.82-46.04Z"/>
        <path class="cls-3" d="M527.46,6.48c-1.24,6.94-1.86,10.41-3.1,17.35,7.13,1.26,10.69,1.91,17.81,3.25-.97,5.1-1.46,7.65-2.43,12.75-7.06-1.33-10.59-1.98-17.66-3.23-1.76,9.9-3.53,19.8-5.3,29.71-1.49,8.33.12,12.9,7.01,14.17,3.23.6,5.01.79,7.16.63-.86,5.18-1.3,7.77-2.16,12.95-2.8.47-7.74.4-13.26-.6-6.68-1.21-11.77-4.24-14.46-8.26-4.15-6.22-3.17-12.87-2.54-20,1.75-10.57,3.5-21.13,5.25-31.7-4.17-.68-6.26-1.02-10.44-1.67.81-5.12,1.22-7.68,2.03-12.8,4.21.66,6.32.99,10.53,1.68.84-5.06,1.26-7.59,2.1-12.65,7.76-.68,11.65-.99,19.45-1.57Z"/>
      </g>
      <path class="cls-2" d="M559.78,12.69c4.38.58,7.34,4.45,6.76,8.78-.59,4.43-4.45,7.39-8.89,6.8-4.43-.59-7.49-4.47-6.9-8.9.58-4.34,4.54-7.28,8.97-6.69h.05ZM559.5,14.04c-3.51-.47-6.57,2.05-7.04,5.56-.48,3.6,1.82,6.79,5.43,7.27,3.45.51,6.47-2.02,6.94-5.57.47-3.56-1.78-6.78-5.28-7.25h-.05ZM556.72,24.53l-1.51-.2,1.08-8.14c.85-.04,1.74-.02,2.86.13,1.36.18,2.01.52,2.45.97.44.41.7,1.08.59,1.86-.13.97-.94,1.51-1.81,1.69v.1c.63.38.94,1.07,1.04,2.17.08,1.25.21,1.76.37,2.08l-1.56-.21c-.2-.32-.3-1.08-.4-2.19-.07-.95-.56-1.41-1.68-1.56l-.97-.13-.45,3.41ZM557.33,19.95l1.02.14c1.07.14,2.14-.06,2.26-.99.1-.78-.35-1.44-1.77-1.62-.59-.08-.93-.07-1.18-.06l-.34,2.53Z"/>
    </g>
  </g>
</svg>